<svg xmlns="http://www.w3.org/2000/svg" xmlns:xlink="http://www.w3.org/1999/xlink" width="50" height="50">
<symbol id="ic-attachment" viewBox="0 0 39 48"><defs><path d="M20 18.2l-9.2 14.5c-.8 1.1-.4 2.8.7 3.5 1.2.8 2.8.4 3.6-.7L24.3 21c.5-.8 1.5-1 2.3-.5.8.5 1 1.6.5 2.3L16.1 40a6 6 0 0 1-8.2 2A6 6 0 0 1 6 33.7L22.6 7.9A6 6 0 0 1 31 6a6 6 0 0 1 1.8 8.2c-.9 1.2-.5 2.8.8 3.6 1.1.7 2.7.3 3.5-.8A11.1 11.1 0 0 0 18.3 5L1.7 30.9a11.1 11.1 0 0 0 18.8 12l11.2-17.5a7 7 0 0 0-2.2-9.2 6.8 6.8 0 0 0-9.4 2z"/></defs>
</symbol>
<symbol id="ic-close" viewBox="0 0 36 36"><defs><path d="M1 1a3.2 3.2 0 0 0 0 4.5L13.4 18 .9 30.5a3.2 3.2 0 0 0 4.6 4.6L18 22.5l12.5 12.6a3.2 3.2 0 1 0 4.6-4.6L22.5 18 35.1 5.5A3.2 3.2 0 1 0 30.5.9L18 13.5 5.5.9A3.2 3.2 0 0 0 .9 1z"/></defs>
</symbol>
<symbol id="ic-docs-attachment-render-buble" viewBox="0 0 36 50"><defs><path d="M7 21.7h20.1a1.3 1.3 0 1 1 0 2.6h-20a1.3 1.3 0 1 1 0-2.6z"/><path d="M27.1 28.8h-20a1.3 1.3 0 1 0 0 2.7h20a1.3 1.3 0 1 0 0-2.7z"/><path d="M7 36h10.7a1.3 1.3 0 1 1 0 2.6H7.1a1.3 1.3 0 1 1 0-2.7z"/><path fill-rule="evenodd" d="M5.3 5a5.5 5.5 0 0 1 11 0h14.6c2.5 0 4.5 2 4.5 4.5v28c0 .5-.2 1-.5 1.4l-9.6 9.6c-.4.3-.8.5-1.3.5H4.5C2 49 0 47 0 44.5v-35C0 7 2 5 4.5 5h.8zM9 5h3.5A1.8 1.8 0 0 0 9 5zM4.5 8.7c-.5 0-.8.4-.8.8v35c0 .5.3.8.8.8h17.7v-7.7c0-1 .8-1.9 1.8-1.9h7.8V9.5c0-.4-.4-.8-.9-.8H16.2v5.7a4.3 4.3 0 0 1-8.5 0V12a1.8 1.8 0 1 1 3.7 0v2.4c0 .3.3.6.6.6s.6-.3.6-.6V8.7H4.5zm21.3 30.7v3.3l3.4-3.3h-3.4z"/></defs>
</symbol>

<use xlink:href="#ic-attachment" x="0" y="0" />
<use xlink:href="#ic-attachment" x="0" y="50" />
<use xlink:href="#ic-attachment" x="0" y="100" />
</svg>
